<svg xmlns="http://www.w3.org/2000/svg" viewBox="0 0 24 24" width="1rem" height="1rem">
    <path fill="#0077B5" d="M19.5 0h-15C2.01 0 0 2.01 0 4.5v15C0 21.99 2.01 24 4.5 24h15c2.49 0 4.5-2.01 4.5-4.5v-15C24 2.01 21.99 0 19.5 0zM7.5 20h-3v-10h3v10zm-1.5-11.5c-.966 0-1.5-.634-1.5-1.5 0-.866.534-1.5 1.5-1.5s1.5.634 1.5 1.5c0 .866-.534 1.5-1.5 1.5zm15 11.5h-3v-5.5c0-1.309-.027-2.99-1.82-2.99-1.82 0-2.1 1.42-2.1 2.89v5.6h-3v-10h3v1.36c.4-.77 1.38-1.36 2.83-1.36 3.03 0 3.6 2.01 3.6 4.63v5.37z"/>
</svg>
